<svg width="459" height="339" viewBox="0 0 459 339" fill="none" xmlns="http://www.w3.org/2000/svg">
<rect width="459" height="339" rx="20" fill="#BB0000"/>
<path d="M107.135 149.692H83.8156C83.3652 149.692 83 150.063 83 150.52V201.48C83 201.937 83.3652 202.308 83.8156 202.308H107.135C107.585 202.308 107.95 201.937 107.95 201.48V150.52C107.95 150.063 107.585 149.692 107.135 149.692Z" fill="white"/>
<path d="M134.296 149.692H111.293C110.842 149.692 110.477 150.063 110.477 150.52V173.888C110.477 174.346 110.842 174.717 111.293 174.717H134.296C134.746 174.717 135.112 174.346 135.112 173.888V150.52C135.112 150.063 134.746 149.692 134.296 149.692Z" fill="white"/>
<path d="M135.112 200.308C135.112 201.046 134.233 201.416 133.719 200.894L122.794 189.796L111.869 178.698C111.356 178.176 111.72 177.283 112.446 177.283H134.296C134.746 177.283 135.112 177.654 135.112 178.112V200.308Z" fill="white"/>
<path d="M156.208 193.4V157.022H175.835C178.48 157.022 180.672 157.5 182.412 158.454C184.187 159.409 185.51 160.752 186.38 162.484C187.25 164.181 187.685 166.143 187.685 168.371C187.685 170.739 187.163 172.843 186.119 174.681C185.074 176.484 183.561 177.863 181.577 178.817L188.885 193.4H180.272L173.956 180.143H163.985V193.4H156.208ZM163.985 173.886H174.791C176.357 173.886 177.575 173.408 178.445 172.454C179.315 171.464 179.75 170.138 179.75 168.477C179.75 167.416 179.559 166.515 179.176 165.772C178.793 164.994 178.236 164.411 177.505 164.022C176.775 163.633 175.87 163.439 174.791 163.439H163.985V173.886ZM203.488 194.036C200.461 194.036 197.921 193.524 195.867 192.499C193.814 191.438 192.265 189.83 191.221 187.673C190.177 185.516 189.655 182.777 189.655 179.454C189.655 176.095 190.177 173.355 191.221 171.234C192.265 169.078 193.797 167.487 195.815 166.462C197.869 165.401 200.374 164.871 203.332 164.871C206.116 164.871 208.465 165.383 210.379 166.409C212.293 167.398 213.738 168.954 214.712 171.075C215.686 173.161 216.173 175.865 216.173 179.188V181.097H197.015C197.086 182.724 197.329 184.102 197.746 185.234C198.199 186.365 198.878 187.213 199.782 187.779C200.722 188.309 201.957 188.574 203.488 188.574C204.324 188.574 205.072 188.468 205.733 188.256C206.43 188.044 207.021 187.726 207.508 187.302C207.996 186.878 208.378 186.347 208.656 185.711C208.935 185.075 209.074 184.35 209.074 183.537H216.173C216.173 185.304 215.86 186.842 215.234 188.15C214.607 189.458 213.738 190.554 212.624 191.438C211.51 192.286 210.17 192.94 208.604 193.4C207.073 193.824 205.368 194.036 203.488 194.036ZM197.12 176.431H208.709C208.709 175.37 208.57 174.451 208.291 173.673C208.048 172.896 207.7 172.259 207.247 171.764C206.795 171.269 206.238 170.916 205.576 170.704C204.95 170.456 204.237 170.333 203.436 170.333C202.114 170.333 201.001 170.562 200.095 171.022C199.226 171.446 198.547 172.118 198.06 173.037C197.608 173.921 197.294 175.052 197.12 176.431ZM230.528 194.036C228.614 194.036 226.892 193.824 225.36 193.4C223.829 192.976 222.524 192.393 221.445 191.65C220.367 190.872 219.531 189.953 218.939 188.893C218.383 187.832 218.104 186.63 218.104 185.287C218.104 185.145 218.104 185.004 218.104 184.862C218.104 184.721 218.122 184.615 218.156 184.544H225.151C225.151 184.615 225.151 184.686 225.151 184.756C225.151 184.827 225.151 184.898 225.151 184.969C225.186 185.852 225.464 186.577 225.986 187.143C226.508 187.673 227.187 188.062 228.022 188.309C228.892 188.557 229.797 188.681 230.737 188.681C231.572 188.681 232.373 188.61 233.138 188.468C233.939 188.292 234.599 187.991 235.121 187.567C235.679 187.143 235.957 186.595 235.957 185.923C235.957 185.075 235.609 184.421 234.913 183.961C234.252 183.501 233.365 183.13 232.25 182.847C231.172 182.565 229.989 182.246 228.701 181.893C227.518 181.61 226.335 181.292 225.151 180.938C223.968 180.549 222.889 180.055 221.915 179.454C220.975 178.853 220.21 178.075 219.618 177.12C219.026 176.13 218.73 174.893 218.73 173.408C218.73 171.959 219.044 170.704 219.67 169.643C220.296 168.547 221.15 167.646 222.228 166.939C223.342 166.232 224.629 165.719 226.091 165.401C227.587 165.047 229.189 164.871 230.893 164.871C232.494 164.871 233.991 165.047 235.382 165.401C236.775 165.719 237.993 166.214 239.037 166.886C240.081 167.522 240.899 168.335 241.49 169.325C242.082 170.28 242.377 171.358 242.377 172.56C242.377 172.807 242.377 173.037 242.377 173.249C242.377 173.461 242.36 173.603 242.325 173.673H235.382V173.249C235.382 172.613 235.192 172.083 234.808 171.658C234.426 171.199 233.869 170.845 233.138 170.598C232.442 170.35 231.59 170.227 230.58 170.227C229.884 170.227 229.241 170.28 228.649 170.386C228.092 170.492 227.605 170.651 227.187 170.863C226.769 171.075 226.439 171.34 226.195 171.658C225.986 171.941 225.882 172.295 225.882 172.719C225.882 173.32 226.126 173.815 226.613 174.204C227.135 174.557 227.813 174.858 228.649 175.105C229.484 175.353 230.406 175.618 231.415 175.901C232.668 176.254 233.973 176.608 235.33 176.961C236.723 177.279 238.01 177.721 239.193 178.287C240.377 178.853 241.333 179.666 242.064 180.726C242.795 181.751 243.16 183.148 243.16 184.915C243.16 186.612 242.83 188.044 242.169 189.211C241.542 190.377 240.655 191.314 239.506 192.021C238.358 192.728 237.019 193.241 235.487 193.559C233.956 193.877 232.303 194.036 230.528 194.036ZM254.523 194.036C252.783 194.036 251.373 193.718 250.295 193.082C249.216 192.446 248.433 191.597 247.946 190.537C247.458 189.441 247.215 188.239 247.215 186.931V171.181H243.822V165.507H247.476L248.833 157.553H254.471V165.507H259.482V171.181H254.471V185.711C254.471 186.559 254.662 187.213 255.045 187.673C255.428 188.097 256.054 188.309 256.924 188.309H259.482V193.188C259.065 193.329 258.577 193.453 258.021 193.559C257.464 193.701 256.872 193.807 256.246 193.877C255.619 193.983 255.045 194.036 254.523 194.036ZM262.082 193.4V165.507H268.085L268.659 169.855H269.024C269.372 168.936 269.825 168.105 270.382 167.363C270.938 166.585 271.635 165.967 272.47 165.507C273.305 165.047 274.279 164.818 275.393 164.818C275.984 164.818 276.524 164.888 277.011 165.03C277.498 165.136 277.864 165.242 278.107 165.348V172.03H275.863C274.784 172.03 273.827 172.189 272.992 172.507C272.191 172.79 271.512 173.249 270.956 173.886C270.399 174.522 269.981 175.3 269.703 176.219C269.459 177.138 269.338 178.216 269.338 179.454V193.4H262.082ZM291.946 194.036C288.954 194.036 286.413 193.524 284.325 192.499C282.237 191.438 280.654 189.83 279.575 187.673C278.497 185.481 277.957 182.741 277.957 179.454C277.957 176.095 278.497 173.355 279.575 171.234C280.654 169.078 282.237 167.487 284.325 166.462C286.413 165.401 288.954 164.871 291.946 164.871C295.009 164.871 297.567 165.401 299.62 166.462C301.708 167.487 303.292 169.078 304.37 171.234C305.449 173.355 305.989 176.095 305.989 179.454C305.989 182.741 305.449 185.481 304.37 187.673C303.292 189.83 301.708 191.438 299.62 192.499C297.567 193.524 295.009 194.036 291.946 194.036ZM291.946 188.309C293.548 188.309 294.818 188.009 295.757 187.408C296.732 186.807 297.446 185.888 297.897 184.65C298.35 183.413 298.576 181.893 298.576 180.09V178.817C298.576 177.014 298.35 175.494 297.897 174.257C297.446 173.019 296.732 172.1 295.757 171.499C294.818 170.863 293.548 170.545 291.946 170.545C290.38 170.545 289.11 170.863 288.136 171.499C287.196 172.1 286.5 173.019 286.048 174.257C285.596 175.494 285.369 177.014 285.369 178.817V180.09C285.369 181.893 285.596 183.413 286.048 184.65C286.5 185.888 287.196 186.807 288.136 187.408C289.11 188.009 290.38 188.309 291.946 188.309ZM318.025 193.4V157.022H344.439V163.492H325.803V172.507H342.455V178.923H325.803V193.4H318.025ZM344.912 193.4L354.882 178.923L345.643 165.507H354.36L359.58 173.886H359.841L365.114 165.507H373.309L364.017 178.87L373.831 193.4H365.27L359.319 183.908H359.058L353.107 193.4H344.912Z" fill="white"/>
</svg>
